<svg width="50" height="50" viewBox="0 0 50 50" fill="none" xmlns="http://www.w3.org/2000/svg">
<path fill-rule="evenodd" clip-rule="evenodd" d="M32.7254 17.2537C33.3361 17.8635 33.3368 18.8528 32.727 19.4634L19.4848 32.7251C18.8751 33.3358 17.8858 33.3365 17.2751 32.7268C16.6645 32.117 16.6638 31.1277 17.2735 30.5171L30.5157 17.2553C31.1254 16.6447 32.1148 16.644 32.7254 17.2537Z" fill="#3846C8"/>
<path fill-rule="evenodd" clip-rule="evenodd" d="M16.1636 20.5748C16.7738 21.185 16.7738 22.1744 16.1636 22.7845L10.6362 28.3119C9.17065 29.7775 8.34729 31.7652 8.34729 33.8379C8.34729 35.9106 9.17065 37.8983 10.6362 39.3639C12.1018 40.8295 14.0896 41.6529 16.1622 41.6529C17.1885 41.6529 18.2047 41.4507 19.1529 41.058C20.101 40.6652 20.9626 40.0896 21.6882 39.3639L27.2156 33.8366C27.8258 33.2264 28.8151 33.2264 29.4253 33.8366C30.0355 34.4468 30.0355 35.4361 29.4253 36.0463L23.898 41.5736C22.8821 42.5895 21.6761 43.3953 20.3488 43.9451C19.0215 44.4949 17.5989 44.7779 16.1622 44.7779C13.2608 44.7779 10.4782 43.6252 8.42653 41.5736C6.37489 39.522 5.22229 36.7394 5.22229 33.8379C5.22229 30.9364 6.37489 28.1538 8.42653 26.1022L13.9539 20.5748C14.5641 19.9646 15.5534 19.9646 16.1636 20.5748Z" fill="#3846C8"/>
<path fill-rule="evenodd" clip-rule="evenodd" d="M26.1021 8.42637C28.1538 6.37474 30.9364 5.22214 33.8379 5.22214C36.7393 5.22214 39.5219 6.37474 41.5736 8.42637C43.6252 10.478 44.7778 13.2606 44.7778 16.1621C44.7778 19.0635 43.6252 21.8462 41.5736 23.8978L36.0462 29.4251C35.436 30.0353 34.4467 30.0353 33.8365 29.4251C33.2263 28.815 33.2263 27.8256 33.8365 27.2154L39.3639 21.6881C40.8295 20.2225 41.6528 18.2347 41.6528 16.1621C41.6528 14.0894 40.8295 12.1017 39.3639 10.6361C37.8983 9.1705 35.9105 8.34714 33.8379 8.34714C31.7652 8.34714 29.7774 9.1705 28.3119 10.6361L22.7845 16.1634C22.1743 16.7736 21.185 16.7736 20.5748 16.1634C19.9646 15.5532 19.9646 14.5639 20.5748 13.9537L26.1021 8.42637Z" fill="#3846C8"/>
</svg>
